<?xml version="1.0" encoding="UTF-8"?>
<svg xmlns="http://www.w3.org/2000/svg" xmlns:xlink="http://www.w3.org/1999/xlink" width="24px" height="24px" viewBox="0 0 24 24" version="1.1">
<g id="surface1">
<path style=" stroke:none;fill-rule:nonzero;fill:rgb(0%,0%,0%);fill-opacity:1;" d="M 20.242188 3.429688 L 18.753906 3.429688 C 18.722656 3.429688 18.695312 3.4375 18.667969 3.445312 L 18.667969 1.882812 C 18.667969 0.84375 17.800781 0 16.738281 0 L 3.832031 0 C 2.769531 0 1.90625 0.84375 1.90625 1.882812 L 1.90625 19.449219 C 1.90625 20.488281 2.769531 21.332031 3.832031 21.332031 L 6.09375 21.332031 L 6.09375 22.183594 C 6.09375 23.183594 6.925781 24 7.949219 24 L 20.242188 24 C 21.265625 24 22.09375 23.183594 22.09375 22.183594 L 22.09375 5.246094 C 22.09375 4.242188 21.265625 3.429688 20.242188 3.429688 Z M 2.667969 19.449219 L 2.667969 1.882812 C 2.667969 1.265625 3.1875 0.761719 3.832031 0.761719 L 16.738281 0.761719 C 17.382812 0.761719 17.90625 1.265625 17.90625 1.882812 L 17.90625 19.449219 C 17.90625 20.066406 17.382812 20.570312 16.738281 20.570312 L 3.832031 20.570312 C 3.1875 20.570312 2.667969 20.066406 2.667969 19.449219 Z M 21.332031 22.183594 C 21.332031 22.765625 20.84375 23.238281 20.242188 23.238281 L 7.949219 23.238281 C 7.347656 23.238281 6.855469 22.765625 6.855469 22.183594 L 6.855469 21.332031 L 16.738281 21.332031 C 17.800781 21.332031 18.667969 20.488281 18.667969 19.449219 L 18.667969 4.171875 C 18.695312 4.179688 18.722656 4.191406 18.753906 4.191406 L 20.242188 4.191406 C 20.84375 4.191406 21.332031 4.664062 21.332031 5.246094 Z M 21.332031 22.183594 "/>
<path style=" stroke:none;fill-rule:nonzero;fill:rgb(0%,0%,0%);fill-opacity:1;" d="M 14.476562 4.953125 L 6.09375 4.953125 C 5.882812 4.953125 5.714844 5.121094 5.714844 5.332031 C 5.714844 5.542969 5.882812 5.714844 6.09375 5.714844 L 14.476562 5.714844 C 14.6875 5.714844 14.855469 5.542969 14.855469 5.332031 C 14.855469 5.121094 14.6875 4.953125 14.476562 4.953125 Z M 14.476562 4.953125 "/>
<path style=" stroke:none;fill-rule:nonzero;fill:rgb(0%,0%,0%);fill-opacity:1;" d="M 14.476562 8 L 6.09375 8 C 5.882812 8 5.714844 8.171875 5.714844 8.382812 C 5.714844 8.589844 5.882812 8.761719 6.09375 8.761719 L 14.476562 8.761719 C 14.6875 8.761719 14.855469 8.589844 14.855469 8.382812 C 14.855469 8.171875 14.6875 8 14.476562 8 Z M 14.476562 8 "/>
<path style=" stroke:none;fill-rule:nonzero;fill:rgb(0%,0%,0%);fill-opacity:1;" d="M 14.476562 11.046875 L 6.09375 11.046875 C 5.882812 11.046875 5.714844 11.21875 5.714844 11.429688 C 5.714844 11.640625 5.882812 11.808594 6.09375 11.808594 L 14.476562 11.808594 C 14.6875 11.808594 14.855469 11.640625 14.855469 11.429688 C 14.855469 11.21875 14.6875 11.046875 14.476562 11.046875 Z M 14.476562 11.046875 "/>
<path style=" stroke:none;fill-rule:nonzero;fill:rgb(0%,0%,0%);fill-opacity:1;" d="M 10.667969 14.09375 L 6.09375 14.09375 C 5.882812 14.09375 5.714844 14.265625 5.714844 14.476562 C 5.714844 14.6875 5.882812 14.855469 6.09375 14.855469 L 10.667969 14.855469 C 10.878906 14.855469 11.046875 14.6875 11.046875 14.476562 C 11.046875 14.265625 10.878906 14.09375 10.667969 14.09375 Z M 10.667969 14.09375 "/>
</g>
</svg>
