<svg id="Group_49" data-name="Group 49" xmlns="http://www.w3.org/2000/svg" width="16.74" height="16.74" viewBox="0 0 16.74 16.74">
  <path id="Path_7" data-name="Path 7" d="M0,0H16.74V16.74H0Z" fill="none"/>
  <path id="Path_8" data-name="Path 8" d="M12.463,4.79H15.95v1.4h-1.4v9.068a.7.7,0,0,1-.7.7H4.093a.7.7,0,0,1-.7-.7V6.185H2V4.79H5.488V2.7a.7.7,0,0,1,.7-.7h5.58a.7.7,0,0,1,.7.7Zm.7,1.4H4.79v8.37h8.37ZM6.883,8.278h1.4v4.185h-1.4Zm2.79,0h1.4v4.185h-1.4ZM6.883,3.4v1.4h4.185V3.4Z" transform="translate(-0.605 -0.605)" fill="#ff3030"/>
</svg>
