<svg id="Group_47" data-name="Group 47" xmlns="http://www.w3.org/2000/svg" width="16.892" height="16.892" viewBox="0 0 16.892 16.892">
  <path id="Path_3" data-name="Path 3" d="M0,0H16.892V16.892H0Z" fill="none"/>
  <path id="Path_4" data-name="Path 4" d="M13.557,5.927h1.408a.7.7,0,0,1,.7.7v8.446a.7.7,0,0,1-.7.7H3.7a.7.7,0,0,1-.7-.7V6.631a.7.7,0,0,1,.7-.7H5.111v-.7a4.223,4.223,0,0,1,8.446,0ZM8.631,11.369v1.6h1.408v-1.6a1.408,1.408,0,1,0-1.408,0ZM12.15,5.927v-.7a2.815,2.815,0,1,0-5.631,0v.7Z" transform="translate(-0.889 -0.296)"/>
</svg>
